<?xml version="1.0" standalone="no"?>
<!DOCTYPE svg PUBLIC "-//W3C//DTD SVG 20010904//EN"
 "http://www.w3.org/TR/2001/REC-SVG-20010904/DTD/svg10.dtd">
<svg version="1.0" xmlns="http://www.w3.org/2000/svg"
 width="500.000000pt" height="500.000000pt" viewBox="0 0 500.000000 500.000000"
 preserveAspectRatio="xMidYMid meet">
<metadata>
Created by potrace 1.14, written by Peter Selinger 2001-2017
</metadata>
<g transform="translate(0.000000,500.000000) scale(0.100000,-0.100000)"
fill="#000000" stroke="none">
<path d="M2298 4845 c-2 -2 -32 -6 -68 -10 -211 -21 -510 -107 -710 -203 -116
-56 -294 -158 -355 -204 -146 -111 -213 -166 -294 -246 -249 -245 -430 -520
-555 -845 -43 -111 -98 -300 -110 -377 -3 -19 -7 -44 -10 -55 -2 -11 -7 -42
-11 -70 -4 -27 -9 -61 -11 -75 -7 -36 -12 -435 -7 -464 4 -21 11 -25 51 -28
26 -1 66 -2 90 0 l43 3 -7 45 c-13 90 -7 370 12 480 69 422 218 766 461 1069
349 434 855 719 1403 790 180 23 440 23 577 0 16 -3 42 -7 58 -9 424 -58 899
-306 1212 -630 313 -325 534 -775 589 -1201 3 -27 8 -59 11 -70 3 -11 6 -123
7 -249 l2 -230 78 2 c43 1 82 5 87 8 12 7 5 458 -9 549 -43 281 -109 492 -232
737 -92 182 -223 376 -344 505 -97 105 -111 119 -206 202 -349 308 -785 504
-1250 565 -88 12 -492 20 -502 11z"/>
<path d="M2470 4425 c-114 -84 -202 -213 -246 -361 -18 -59 -25 -238 -12 -294
28 -118 67 -206 125 -280 33 -42 105 -112 109 -107 1 1 5 43 9 92 3 50 8 113
11 140 2 28 6 82 9 120 9 141 26 309 31 314 2 2 4 -20 5 -50 0 -30 2 -62 4
-73 2 -10 6 -57 10 -105 3 -47 7 -99 9 -116 2 -16 7 -70 11 -120 11 -154 15
-199 18 -201 2 -2 17 10 34 26 301 281 268 775 -68 1020 -26 19 -26 19 -59 -5z"/>
<path d="M1590 3585 c-77 -17 -158 -48 -221 -87 -44 -27 -47 -30 -42 -66 9
-70 60 -199 107 -270 110 -166 280 -264 482 -277 186 -12 207 -15 256 -31 27
-9 65 -32 84 -50 l34 -35 -6 38 c-32 200 -170 387 -359 488 -28 14 -39 23 -25
19 22 -6 108 -49 161 -80 10 -6 38 -28 62 -50 196 -176 286 -442 291 -866 1
-87 -9 -77 89 -84 20 -1 37 1 37 4 1 4 2 72 5 152 3 136 23 296 46 366 5 17
12 42 14 55 15 80 97 232 168 314 59 68 170 147 244 175 72 27 79 19 12 -14
-101 -51 -197 -142 -262 -249 -37 -61 -87 -198 -87 -239 0 -21 1 -21 28 4 54
51 96 64 232 73 269 17 373 57 511 195 89 89 148 196 175 316 l17 77 -24 18
c-31 25 -129 71 -199 95 -43 14 -83 18 -190 18 -118 -1 -144 -4 -208 -27 -266
-93 -474 -332 -523 -600 -7 -37 -16 -67 -21 -67 -4 0 -7 3 -6 8 6 18 -28 144
-57 212 -31 75 -96 178 -151 239 -81 92 -246 190 -369 221 -73 18 -229 21
-305 5z m1527 -261 c-3 -3 -12 -4 -19 -1 -8 3 -5 6 6 6 11 1 17 -2 13 -5z"/>
<path d="M1320 2445 c-146 -26 -323 -87 -470 -160 -72 -36 -232 -93 -317 -113
-49 -12 -127 -19 -208 -21 -71 -1 -131 -4 -133 -6 -14 -13 66 -323 121 -470
118 -316 301 -599 543 -840 372 -369 851 -603 1374 -670 100 -13 500 -14 560
-2 14 3 48 9 75 13 28 4 55 8 60 9 6 2 48 10 95 20 128 26 371 109 499 172
139 67 324 180 440 270 160 124 366 345 493 528 88 128 200 338 243 455 64
176 115 356 130 460 4 24 9 48 11 52 3 5 -41 8 -98 9 -57 0 -111 2 -120 4 -9
2 -34 6 -55 9 -63 9 -168 46 -283 98 -157 72 -303 129 -405 159 -93 27 -127
32 -220 32 -60 1 -123 -2 -140 -5 -121 -24 -233 -62 -435 -145 -270 -112 -372
-143 -498 -148 -136 -7 -276 31 -527 140 -195 85 -284 116 -439 152 -45 10
-235 9 -296 -2z m1188 -459 c35 -2 67 -7 71 -12 4 -5 16 -30 25 -57 22 -58 90
-152 142 -195 21 -18 64 -45 94 -60 50 -24 65 -27 160 -27 96 1 112 4 190 35
72 30 97 35 165 35 101 0 111 -3 231 -63 119 -59 156 -72 224 -77 63 -4 121
10 192 46 28 14 46 11 58 -11 9 -17 6 -25 -17 -46 -63 -59 -172 -94 -270 -88
-72 5 -130 23 -216 66 -43 21 -82 36 -87 33 -17 -11 -11 -42 14 -72 49 -59 59
-92 66 -223 4 -69 12 -135 18 -146 10 -19 36 -44 101 -96 25 -21 27 -36 5 -45
-20 -8 -113 40 -152 78 -38 37 -48 64 -66 172 -18 103 -49 177 -97 228 -68 73
-108 80 -256 43 -118 -29 -215 -29 -321 0 -29 8 -55 14 -57 14 -3 0 -38 8 -79
18 -40 9 -81 14 -89 11 -44 -17 -67 -140 -39 -212 8 -22 47 -83 86 -135 102
-135 116 -161 120 -222 6 -87 -26 -180 -57 -161 -4 2 -5 33 -2 68 10 93 -5
127 -95 220 -42 44 -89 103 -104 132 -37 67 -56 71 -100 23 -59 -65 -75 -164
-44 -260 7 -19 13 -37 13 -40 1 -3 9 -22 18 -43 21 -50 36 -132 31 -176 -10
-86 -66 -161 -167 -228 -81 -53 -110 -13 -32 44 60 44 96 108 102 180 5 60 -4
97 -50 208 -53 127 -40 222 62 431 85 173 106 237 85 255 -18 14 -70 5 -139
-26 -71 -31 -102 -37 -209 -39 -136 -2 -171 -23 -258 -151 -38 -55 -78 -110
-90 -123 -45 -49 -109 -69 -200 -64 -51 3 -31 27 33 41 72 15 103 43 151 139
18 35 41 74 53 86 86 95 88 97 68 118 -26 29 -75 48 -126 48 -52 0 -145 -43
-197 -92 -82 -76 -175 -100 -263 -69 -52 18 -137 84 -137 106 0 21 30 18 49
-4 24 -27 80 -48 126 -46 44 1 94 26 239 118 49 32 108 62 130 68 60 17 150
13 225 -11 158 -49 315 -20 441 81 48 39 99 110 111 154 8 29 14 34 32 30 12
-3 50 -7 85 -9z"/>
</g>
</svg>
