<svg width="1251" height="302" viewBox="0 0 1251 302" fill="none" xmlns="http://www.w3.org/2000/svg"><path d="M34.508 184.745c1.19 2.06 3.14 2.06 4.332 0 1.192-2.06.217-3.745-2.166-3.745-2.382 0-3.357 1.686-2.166 3.745z" fill="#DADCE0"/><path d="M1.017 100.49c2.382 4.12 6.28 4.12 8.662 0 2.38-4.12.43-7.49-4.334-7.49-4.765 0-6.713 3.37-4.33 7.49z" fill="#BEC2CA"/><path d="M547.47 122.006a.584.584 0 0 1-.435-.18.62.62 0 0 1-.182-.424.788.788 0 0 1 .05-.23.548.548 0 0 1 .132-.193.62.62 0 0 1 .992.19.78.78 0 0 1 .048.23.614.614 0 0 1-.18.423.572.572 0 0 1-.425.18zm-3.57-5.556a.59.59 0 0 1 .04-.668.614.614 0 0 1 1.013.063.596.596 0 0 1-.23.82.518.518 0 0 1-.302.086.604.604 0 0 1-.52-.3zm-3.036-5.256a.6.6 0 0 1 .218-.82.61.61 0 0 1 .834.216.622.622 0 0 1-.23.834.666.666 0 0 1-.302.072.6.6 0 0 1-.52-.302zm-3.038-5.243a.62.62 0 0 1 .218-.83.614.614 0 0 1 .835.23.61.61 0 0 1-.23.82.6.6 0 0 1-.825-.217zm-3.037-5.25a.59.59 0 0 1-.067-.458.587.587 0 0 1 .28-.364.614.614 0 0 1 .836.218.606.606 0 0 1-.23.82.546.546 0 0 1-.3.086.606.606 0 0 1-.52-.303zm-3.04-5.256a.586.586 0 0 1-.064-.457.595.595 0 0 1 .28-.365.615.615 0 0 1 .836.22.602.602 0 0 1-.05.67.606.606 0 0 1-.18.15.536.536 0 0 1-.29.085.605.605 0 0 1-.533-.302zm-3.038-5.255a.604.604 0 0 1-.064-.457.6.6 0 0 1 .28-.365.612.612 0 0 1 .836.218.624.624 0 0 1-.23.834.653.653 0 0 1-.3.07.602.602 0 0 1-.522-.302zm-3.037-5.256a.605.605 0 0 1-.062-.456.594.594 0 0 1 .28-.365.622.622 0 0 1 .834.218.62.62 0 0 1-.23.835.653.653 0 0 1-.302.072.6.6 0 0 1-.52-.302zm-3.038-5.243a.613.613 0 0 1 .218-.833.61.61 0 0 1 .886.686.605.605 0 0 1-.28.365.544.544 0 0 1-.303.084.597.597 0 0 1-.52-.3zm-3.038-5.254a.604.604 0 0 1-.066-.457.582.582 0 0 1 .283-.366.614.614 0 0 1 .836.218.613.613 0 0 1-.533.908.597.597 0 0 1-.52-.303zm-3.038-5.255a.604.604 0 0 1-.064-.456.603.603 0 0 1 .28-.365.604.604 0 0 1 .464-.064.608.608 0 0 1 .372.28.622.622 0 0 1-.23.834.658.658 0 0 1-.3.07.6.6 0 0 1-.52-.3h-.002zm-3.038-5.254a.603.603 0 0 1 .04-.667.606.606 0 0 1 .64-.215c.155.04.29.14.373.277a.62.62 0 0 1-.23.835.658.658 0 0 1-.302.073.602.602 0 0 1-.518-.302h-.003zm-3.037-5.243a.61.61 0 0 1 .218-.833.61.61 0 0 1 .886.684.59.59 0 0 1-.28.365.664.664 0 0 1-.303.082.6.6 0 0 1-.517-.302h-.002zm-3.037-5.255a.61.61 0 0 1 .22-.833.61.61 0 0 1 .783.897.603.603 0 0 1-.178.156.546.546 0 0 1-.303.084.6.6 0 0 1-.517-.302h-.003zm-3.036-5.254a.604.604 0 0 1-.064-.457.605.605 0 0 1 .282-.365.59.59 0 0 1 .668.04c.063.05.116.11.155.18a.603.603 0 0 1 .064.456.58.58 0 0 1-.28.365.55.55 0 0 1-.306.086.597.597 0 0 1-.517-.303h-.004zm-3.038-5.255a.587.587 0 0 1-.063-.457.593.593 0 0 1 .282-.365.59.59 0 0 1 .667.04.61.61 0 0 1-.063 1.01.662.662 0 0 1-.306.073.6.6 0 0 1-.52-.3h-.002zm-3.037-5.256a.605.605 0 0 1-.06-.456.594.594 0 0 1 .5-.44.6.6 0 0 1 .6.304.605.605 0 0 1 .06.458.594.594 0 0 1-.28.366.655.655 0 0 1-.3.072.578.578 0 0 1-.517-.302h-.003zM495.3 32.42a.607.607 0 0 1 .218-.832.608.608 0 0 1 .824.23.587.587 0 0 1 .063.456.595.595 0 0 1-.28.365.674.674 0 0 1-.304.083.6.6 0 0 1-.517-.302h-.003zm-3.037-5.254a.587.587 0 0 1 .04-.667.587.587 0 0 1 .177-.155.596.596 0 0 1 .823.217.587.587 0 0 1 .064.46.596.596 0 0 1-.28.364.546.546 0 0 1-.304.085.6.6 0 0 1-.517-.303h-.004zm-3.038-5.254a.587.587 0 0 1-.065-.455.598.598 0 0 1 .282-.365.598.598 0 0 1 .67.04.59.59 0 0 1 .153.177.606.606 0 0 1 .065.455.597.597 0 0 1-.283.365.546.546 0 0 1-.303.085.6.6 0 0 1-.518-.303h-.004zm-3.038-5.253a.605.605 0 0 1-.063-.457.603.603 0 1 1 1.166.315.613.613 0 0 1-.28.372.653.653 0 0 1-.303.072.603.603 0 0 1-.516-.303h-.004zm-3.04-5.244a.615.615 0 0 1 .22-.833.612.612 0 0 1 .823.218.61.61 0 0 1-.22.835.71.71 0 0 1-.3.085.602.602 0 0 1-.517-.302h-.006zm-3.036-5.255a.604.604 0 0 1-.065-.456.598.598 0 0 1 .282-.365.597.597 0 0 1 .9.44.6.6 0 0 1-.295.6.578.578 0 0 1-.6 0 .602.602 0 0 1-.218-.22h-.006zm-2.51-4.953a.572.572 0 0 1-.424-.18A.565.565 0 0 1 477 .6a.57.57 0 0 1 .18-.423.595.595 0 0 1 .654-.134c.076.025.143.07.194.133a.554.554 0 0 1 .18.423.554.554 0 0 1-.18.42.427.427 0 0 1-.194.132.526.526 0 0 1-.23.05z" opacity=".6" fill="#202124"/><path d="M968.645 73.344c-9.53-16.477-25.122-16.477-34.65 0-9.53 16.477-1.733 29.958 17.325 29.958 19.057 0 26.854-13.48 17.325-29.958z" fill="#ECEFF4"/><path d="M699.832 42.712c-4.764-8.238-12.56-8.238-17.325 0-4.764 8.24-.866 14.98 8.663 14.98 9.528 0 13.427-6.74 8.662-14.98zm306.448 167.264c2.38 4.12 6.28 4.12 8.66 0s.43-7.49-4.33-7.49c-4.77 0-6.71 3.37-4.33 7.49z" fill="#BEC2CA"/><path d="M693.782 239.616c-4.764-8.24-12.56-8.24-17.325 0-4.764 8.238-.866 14.98 8.663 14.98 9.53 0 13.427-6.742 8.662-14.98z" fill="#ECEFF4"/><path d="M1159.69 63.916c1.19 2.06 3.14 2.06 4.33 0 1.2-2.06.22-3.745-2.16-3.745-2.38 0-3.36 1.688-2.17 3.748zm-653.396 90.6c1.192 2.06 3.14 2.06 4.332 0 1.192-2.06.217-3.745-2.166-3.745-2.382 0-3.356 1.688-2.166 3.748z" fill="#DADCE0"/><g opacity=".6" clip-path="url(#a)" fill="#202124"><path d="M1088.05 225.896a.556.556 0 0 1-.42-.18.538.538 0 0 1-.14-.193.46.46 0 0 1-.04-.23.45.45 0 0 1 .04-.23.497.497 0 0 1 .14-.194.437.437 0 0 1 .19-.135.61.61 0 0 1 .46 0c.08.025.14.07.19.132.06.053.11.12.14.192a.6.6 0 0 1 .05.23.6.6 0 0 1-.05.23.407.407 0 0 1-.14.19.535.535 0 0 1-.19.137.54.54 0 0 1-.23.046zm5.3 9.76a.593.593 0 0 1-.08-.22.62.62 0 0 1 .02-.236.555.555 0 0 1 .28-.366.598.598 0 0 1 .46-.064c.07.02.14.056.21.105.06.048.11.11.15.178.08.14.11.305.06.46a.6.6 0 0 1-.28.372.617.617 0 0 1-.6-.007.598.598 0 0 1-.22-.22zm-2.92-5.025a.623.623 0 0 1-.05-.46.596.596 0 0 1 .28-.37.62.62 0 0 1 .83.23.84.84 0 0 1 .08.22.62.62 0 0 1-.02.235.562.562 0 0 1-.28.365.582.582 0 0 1-.3.082.596.596 0 0 1-.31-.078.702.702 0 0 1-.23-.224zm6.36 10.367a.488.488 0 0 1-.23-.048.52.52 0 0 1-.21-.134.61.61 0 0 1 0-.846.5.5 0 0 1 .21-.134.61.61 0 0 1 .46 0 .49.49 0 0 1 .19.132.613.613 0 0 1 .14.653.693.693 0 0 1-.14.194.567.567 0 0 1-.42.18zm-8.74 15.1a.488.488 0 0 1-.23-.048.454.454 0 0 1-.19-.134.538.538 0 0 1-.14-.192.46.46 0 0 1-.04-.23.455.455 0 0 1 .04-.23.5.5 0 0 1 .14-.194.437.437 0 0 1 .19-.134.59.59 0 0 1 .65.132c.07.05.11.118.14.193.03.075.05.15.05.23a.6.6 0 0 1-.05.23.414.414 0 0 1-.14.195.4.4 0 0 1-.19.133.488.488 0 0 1-.23.048zm11.04-.604c0-.16.06-.313.17-.427a.624.624 0 0 1 .66-.133.59.59 0 0 1 .33.328c.03.075.05.154.05.233 0 .16-.07.313-.18.427a.624.624 0 0 1-.43.175.6.6 0 0 1-.42-.18.573.573 0 0 1-.18-.424zm-5.82 0c0-.16.06-.313.17-.427a.624.624 0 0 1 .66-.133.6.6 0 0 1 .2.13c.06.057.1.124.13.198.03.075.05.154.05.233a.608.608 0 0 1-.61.604.595.595 0 0 1-.42-.18.572.572 0 0 1-.18-.424zm12.24.604a.54.54 0 0 1-.23-.046.545.545 0 0 1-.19-.134.54.54 0 0 1-.14-.193.6.6 0 0 1-.04-.23c0-.08.01-.157.04-.23a.56.56 0 0 1 .14-.193c.11-.11.27-.173.43-.173.16 0 .31.06.43.17.05.06.09.124.13.195.05.15.05.31 0 .46a.78.78 0 0 1-.13.192.724.724 0 0 1-.2.136.638.638 0 0 1-.24.046zm-34.92 0a.488.488 0 0 1-.23-.048.556.556 0 0 1-.37-.557.593.593 0 0 1 .03-.23c.04-.07.08-.135.13-.193.12-.11.27-.173.43-.173a.614.614 0 0 1 .62.595.91.91 0 0 1-.05.23.54.54 0 0 1-.14.192.516.516 0 0 1-.19.133.514.514 0 0 1-.23.048zm2.6-5.11a.602.602 0 0 1-.28-.37.62.62 0 0 1 .06-.463c.04-.068.1-.13.16-.177a.588.588 0 0 1 .44-.118c.08.01.16.036.23.076s.13.092.17.155a.58.58 0 0 1 .11.21.62.62 0 0 1 .01.236.456.456 0 0 1-.08.222.565.565 0 0 1-.52.302.72.72 0 0 1-.3-.075zm2.92-5.037a.59.59 0 0 1-.28-.366.566.566 0 0 1 .05-.458.6.6 0 0 1 .37-.282.616.616 0 0 1 .46.053.617.617 0 0 1 .22.833.59.59 0 0 1-.22.22.58.58 0 0 1-.6 0zm3.2-4.954a.677.677 0 0 1-.23-.048.668.668 0 0 1-.19-.133.523.523 0 0 1-.13-.193.61.61 0 0 1-.05-.23c0-.08.02-.157.05-.23a.523.523 0 0 1 .13-.193c.12-.11.27-.174.43-.174.16 0 .31.06.43.17a.61.61 0 0 1 .17.424.61.61 0 0 1-.04.23.578.578 0 0 1-.34.327.488.488 0 0 1-.23.048z"/></g><path d="M630.912 134.692a.592.592 0 0 1-.242-.05.507.507 0 0 1-.194-.132.653.653 0 0 1-.133-.652.78.78 0 0 1 .132-.193.507.507 0 0 1 .194-.133.61.61 0 0 1 .664.133.56.56 0 0 1 .133.193c.028.073.044.15.047.23a.787.787 0 0 1-.048.23.755.755 0 0 1-.134.192.507.507 0 0 1-.194.133.538.538 0 0 1-.23.05zm1.876-3.854a.602.602 0 0 1-.297-.61.607.607 0 0 1 .904-.443.613.613 0 0 1 0 1.056.598.598 0 0 1-.302.084.708.708 0 0 1-.3-.084zm2.48-3.696a.538.538 0 0 1-.23-.05.496.496 0 0 1-.193-.132.73.73 0 0 1-.133-.193.78.78 0 0 1-.05-.23.696.696 0 0 1 .05-.23.535.535 0 0 1 .133-.192.496.496 0 0 1 .193-.133.64.64 0 0 1 .472 0 .5.5 0 0 1 .194.133.81.81 0 0 1 .133.193.74.74 0 0 1 0 .46.755.755 0 0 1-.133.192.5.5 0 0 1-.194.133.592.592 0 0 1-.242.05zm0 15.1a.57.57 0 0 1-.23-.048.564.564 0 0 1-.193-.134.578.578 0 0 1-.133-.652.615.615 0 0 1 .798-.326c.074.028.14.073.194.132a.85.85 0 0 1 .133.193.78.78 0 0 1 .048.23.694.694 0 0 1-.048.23.548.548 0 0 1-.133.192.518.518 0 0 1-.194.13.545.545 0 0 1-.242.05zm1.888-3.854a.61.61 0 0 1-.218-.833.606.606 0 0 1 .823-.218.61.61 0 0 1-.3 1.136.666.666 0 0 1-.302-.085zm2.48-3.696a.538.538 0 0 1-.23-.05.413.413 0 0 1-.193-.132.535.535 0 0 1-.133-.193.564.564 0 0 1 0-.46.548.548 0 0 1 .133-.192.595.595 0 0 1 .653-.133c.08.025.15.07.206.133a.78.78 0 0 1 .133.193.745.745 0 0 1 0 .46.755.755 0 0 1-.132.192.618.618 0 0 1-.436.182zm-4.973-.604a.614.614 0 0 1 1.044-.427.602.602 0 0 1-.426 1.03.604.604 0 0 1-.432-.17.604.604 0 0 1-.183-.43zm-4.356-7.55a.59.59 0 0 1 .373-.56.605.605 0 1 1-.373.56zm-3.763.604a.494.494 0 0 1-.23-.05.538.538 0 0 1-.206-.132.595.595 0 0 1-.17-.422.48.48 0 0 1 .05-.23.534.534 0 0 1 .12-.193.618.618 0 0 1 .666-.133c.074.028.14.074.193.133.058.054.103.12.133.193.03.073.046.15.05.23a.615.615 0 0 1-.183.422.496.496 0 0 1-.193.133.538.538 0 0 1-.23.05zm6.026 11.028a.605.605 0 0 1 .674-.892.608.608 0 1 1-.455 1.114.603.603 0 0 1-.22-.22zm-4.368-7.56a.594.594 0 0 1 .04-.668.605.605 0 1 1 .96.74.612.612 0 0 1-.48.24.59.59 0 0 1-.52-.313zm8.724.01a.622.622 0 0 1 .23-.833.608.608 0 0 1 .605 1.052.716.716 0 0 1-.3.08.64.64 0 0 1-.532-.3zm410.284-53.308a.58.58 0 0 1-.33-.1.642.642 0 0 1-.23-.27.69.69 0 0 1-.03-.35.546.546 0 0 1 .17-.308c.05-.06.12-.107.19-.132a.61.61 0 0 1 .46 0c.08.025.14.07.2.132a.612.612 0 0 1 .18.424c0 .08-.02.157-.05.23a.657.657 0 0 1-.33.325.488.488 0 0 1-.23.05zm-6.02-1.196a.59.59 0 0 1-.33-.325.61.61 0 0 1-.05-.23c0-.076.02-.155.05-.23a.55.55 0 0 1 .13-.195c.05-.056.12-.1.19-.13a.66.66 0 0 1 .24-.046c.07 0 .15.015.23.046.07.03.14.073.19.128a.56.56 0 0 1 .14.196.606.606 0 0 1-.01.46.563.563 0 0 1-.22.27.588.588 0 0 1-.33.105.52.52 0 0 1-.23-.048zm-5.1-3.407a.607.607 0 0 1-.18-.424.607.607 0 0 1 .18-.423.595.595 0 0 1 .2-.135.572.572 0 0 1 .46 0c.07.03.13.076.19.134.06.054.1.12.13.192.04.073.05.15.05.23 0 .08-.01.157-.05.23a.52.52 0 0 1-.13.192.547.547 0 0 1-.42.18.587.587 0 0 1-.43-.18zm-3.41-5.088a.623.623 0 0 1-.05-.234c0-.08.02-.16.05-.235a.585.585 0 0 1 .33-.33.602.602 0 0 1 .78.34c.03.07.05.15.05.23 0 .078-.01.157-.05.23a.535.535 0 0 1-.13.195.54.54 0 0 1-.19.13.836.836 0 0 1-.23.048.618.618 0 0 1-.34-.103.626.626 0 0 1-.22-.27zm-1.2-6.004c0-.08.02-.16.05-.233.03-.074.07-.14.13-.197a.56.56 0 0 1 .19-.13.66.66 0 0 1 .24-.044c.16 0 .31.064.42.177a.58.58 0 0 1 .18.428c0 .16-.06.31-.18.424a.598.598 0 0 1-.42.18.607.607 0 0 1-.61-.604zm1.51-5.23a.61.61 0 0 1-.32-.786.585.585 0 0 1 .33-.33.57.57 0 0 1 .23-.047c.08 0 .16.018.24.05a.605.605 0 0 1 .32.785.563.563 0 0 1-.22.275.606.606 0 0 1-.35.1.57.57 0 0 1-.23-.05zm3.09-5.027a.522.522 0 0 1-.13-.192.464.464 0 0 1-.05-.23.47.47 0 0 1 .05-.23.52.52 0 0 1 .13-.192.668.668 0 0 1 .19-.133.573.573 0 0 1 .46 0c.08.03.14.076.2.133.05.055.1.12.13.192a.6.6 0 0 1 .01.458.712.712 0 0 1-.13.196.617.617 0 0 1-.67.134.67.67 0 0 1-.19-.134zm4.77-3.466a.624.624 0 0 1 0-.465.62.62 0 0 1 .32-.33.64.64 0 0 1 .24-.047c.07 0 .15.015.23.046.07.03.14.074.19.13.06.056.1.123.13.196a.61.61 0 0 1 .01.462.725.725 0 0 1-.14.193.49.49 0 0 1-.2.13.498.498 0 0 1-.23.05.617.617 0 0 1-.33-.1.55.55 0 0 1-.22-.266zm6.36-.784a.605.605 0 0 1-.42-.18.612.612 0 0 1-.14-.655.55.55 0 0 1 .14-.193.46.46 0 0 1 .19-.132.61.61 0 0 1 .46 0c.08.025.14.07.2.133a.612.612 0 0 1 .18.424.615.615 0 0 1-.18.42.48.48 0 0 1-.2.135.485.485 0 0 1-.23.048zm-.6 23.556c0-.08.01-.16.04-.232.03-.074.08-.14.13-.197a.688.688 0 0 1 .2-.133.57.57 0 0 1 .23-.044c.08 0 .16.014.23.044.08.03.15.075.2.13.06.057.1.124.13.198a.62.62 0 0 1 .05.232.608.608 0 0 1-.61.604.585.585 0 0 1-.42-.177.58.58 0 0 1-.18-.425zm0-6.04c0-.08.01-.16.04-.232.03-.074.08-.14.13-.197a.688.688 0 0 1 .2-.133.57.57 0 0 1 .23-.044c.08 0 .16.014.23.044.08.03.15.075.2.13.06.057.1.124.13.198a.62.62 0 0 1 .05.232.608.608 0 0 1-.61.604.585.585 0 0 1-.42-.177.58.58 0 0 1-.18-.425zm0-6.04c0-.08.01-.16.04-.232.03-.074.08-.14.13-.197a.688.688 0 0 1 .2-.133.57.57 0 0 1 .23-.044c.08 0 .16.014.23.044.08.03.15.075.2.13.06.057.1.124.13.198a.62.62 0 0 1 .05.232.608.608 0 0 1-.61.604.585.585 0 0 1-.42-.177.58.58 0 0 1-.18-.425zm0-6.04c0-.08.01-.16.04-.232.03-.074.08-.14.13-.197a.688.688 0 0 1 .2-.133.57.57 0 0 1 .23-.044c.08 0 .16.014.23.044.08.03.15.075.2.13.06.057.1.124.13.198a.62.62 0 0 1 .05.232.608.608 0 0 1-.61.604.585.585 0 0 1-.42-.177.58.58 0 0 1-.18-.425zm202.86 243.466a.54.54 0 0 1-.42-.18.5.5 0 0 1-.14-.194.453.453 0 0 1-.04-.23c0-.08.01-.158.04-.23a.547.547 0 0 1 .14-.193.59.59 0 0 1 .42-.172c.16 0 .31.062.42.172.06.054.11.12.14.193.03.073.05.15.05.23a.6.6 0 0 1-.05.23.416.416 0 0 1-.14.193.4.4 0 0 1-.19.136.476.476 0 0 1-.23.048zm-3.56-5.557a.572.572 0 0 1-.07-.222.464.464 0 0 1 .01-.234.74.74 0 0 1 .1-.214.623.623 0 0 1 .64-.218c.07.02.15.055.21.103.06.05.11.11.15.178.09.14.11.306.07.463a.6.6 0 0 1-.28.37.7.7 0 0 1-.31.075.61.61 0 0 1-.3-.08.674.674 0 0 1-.22-.222zm-3.03-5.255a.614.614 0 0 1-.07-.456.577.577 0 0 1 .11-.21.568.568 0 0 1 .4-.233.588.588 0 0 1 .44.12.53.53 0 0 1 .16.178.62.62 0 0 1-.22.834c-.09.047-.2.07-.3.073a.58.58 0 0 1-.3-.08.527.527 0 0 1-.22-.222zm-3.04-5.243a.574.574 0 0 1-.06-.46c.04-.157.14-.29.28-.373.07-.04.14-.065.22-.074a.63.63 0 0 1 .24.017c.07.022.14.058.21.107.06.05.11.11.15.18a.6.6 0 0 1 .08.22c.01.08 0 .16-.02.236a.562.562 0 0 1-.28.365.71.71 0 0 1-.3.084.59.59 0 0 1-.52-.305zm-3.04-5.255a.587.587 0 0 1-.08-.222.624.624 0 0 1 .02-.235.562.562 0 0 1 .28-.365.596.596 0 0 1 .82.218.62.62 0 0 1 .07.457.62.62 0 0 1-.29.365.556.556 0 0 1-.3.084.61.61 0 0 1-.52-.302zm-3.04-5.255a.572.572 0 0 1-.07-.222.614.614 0 0 1 .01-.234.753.753 0 0 1 .1-.21.647.647 0 0 1 .4-.23.61.61 0 0 1 .45.118.5.5 0 0 1 .15.177c.05.068.07.143.08.222.02.078.01.158-.01.235a.773.773 0 0 1-.1.21.62.62 0 0 1-.18.156.582.582 0 0 1-.31.084c-.1 0-.2-.03-.3-.082a.556.556 0 0 1-.21-.22h-.01zm-3.03-5.255a.614.614 0 0 1-.07-.456.57.57 0 0 1 .11-.21.725.725 0 0 1 .17-.156.626.626 0 0 1 .46-.063c.08.02.15.056.21.104.07.05.12.11.16.18.04.068.07.144.08.22.01.08 0 .16-.02.237a.562.562 0 0 1-.28.365.582.582 0 0 1-.3.085.57.57 0 0 1-.3-.08.527.527 0 0 1-.22-.22v-.002zm-3.04-5.255a.593.593 0 0 1-.08-.222.617.617 0 0 1 .02-.234.555.555 0 0 1 .28-.363c.14-.078.3-.1.45-.058.16.04.29.14.37.275a.617.617 0 0 1-.22.833.652.652 0 0 1-.3.073.58.58 0 0 1-.3-.08.588.588 0 0 1-.22-.22zm-3.04-5.243a.617.617 0 0 1 .22-.833.61.61 0 0 1 .46-.05.61.61 0 0 1 .36.28.593.593 0 0 1 .07.458.577.577 0 0 1-.11.21.605.605 0 0 1-.18.155.66.66 0 0 1-.3.086c-.1 0-.21-.027-.3-.08a.674.674 0 0 1-.22-.22v-.003zm-3.05-5.255a.66.66 0 0 1-.05-.46.586.586 0 0 1 .28-.365.61.61 0 0 1 .46-.063c.08.02.15.055.21.103.06.048.12.108.16.177.04.068.06.144.07.222.02.078.01.158-.01.235a.773.773 0 0 1-.1.21.62.62 0 0 1-.18.154.592.592 0 0 1-.3.084.63.63 0 0 1-.31-.08.7.7 0 0 1-.23-.22v-.002zm-3.03-5.258a.61.61 0 0 1-.06-.458.642.642 0 0 1 .29-.364c.06-.04.14-.065.22-.075a.585.585 0 0 1 .44.118c.07.047.12.107.16.176a.603.603 0 0 1-.52.904.586.586 0 0 1-.53-.3v-.002zm-3.04-5.255a.566.566 0 0 1-.05-.46.59.59 0 0 1 .28-.363.598.598 0 0 1 .46-.063c.07.02.14.056.21.104a.646.646 0 0 1 .23.404.65.65 0 0 1-.02.24.585.585 0 0 1-.11.212.608.608 0 0 1-.18.155.607.607 0 0 1-.59-.007.613.613 0 0 1-.23-.218v-.003zm-3.04-5.244a.67.67 0 0 1-.05-.462.605.605 0 0 1 .28-.37.603.603 0 0 1 .46-.057c.08.022.15.058.21.107.06.05.12.11.16.18.07.14.09.3.05.455a.622.622 0 0 1-.27.367c-.1.05-.2.08-.31.084-.1 0-.21-.027-.3-.08a.7.7 0 0 1-.23-.22v-.002zm-3.04-5.255a.673.673 0 0 1-.05-.463.64.64 0 0 1 .28-.37.626.626 0 0 1 .83.23.603.603 0 0 1-.52.905.593.593 0 0 1-.53-.3l-.01-.002zm-3.03-5.255a.61.61 0 0 1-.06-.458.642.642 0 0 1 .51-.44.55.55 0 0 1 .23.014c.08.02.15.055.21.103a.53.53 0 0 1 .16.177c.04.07.07.145.08.224.01.08 0 .16-.02.237a.57.57 0 0 1-.11.21.578.578 0 0 1-.18.15.523.523 0 0 1-.29.088.59.59 0 0 1-.3-.08.548.548 0 0 1-.23-.22v-.002zm-3.04-5.255a.566.566 0 0 1-.05-.457.59.59 0 0 1 .28-.363.596.596 0 0 1 .82.216c.04.07.07.145.08.224.01.08 0 .16-.02.236a.616.616 0 0 1-.29.363.486.486 0 0 1-.29.083c-.1 0-.21-.028-.3-.08a.706.706 0 0 1-.23-.22v-.003zm-3.04-5.254a.66.66 0 0 1-.05-.458.59.59 0 0 1 .74-.42c.16.044.29.146.37.286.07.138.09.3.05.455a.622.622 0 0 1-.27.365.74.74 0 0 1-.31.072.643.643 0 0 1-.3-.082.58.58 0 0 1-.22-.217l-.01-.004zm-3.03-5.255a.61.61 0 0 1-.06-.456.647.647 0 0 1 .29-.365.59.59 0 0 1 .45-.053c.16.043.29.143.37.28.04.07.06.146.07.224.01.08.01.16-.02.236a.544.544 0 0 1-.1.21.635.635 0 0 1-.48.238.61.61 0 0 1-.31-.083.58.58 0 0 1-.21-.226v-.004zm-3.04-5.24a.61.61 0 0 1-.06-.46.636.636 0 0 1 .51-.44.585.585 0 0 1 .44.12.536.536 0 0 1 .23.4.61.61 0 0 1-.01.232.598.598 0 0 1-.29.363.523.523 0 0 1-.29.085.57.57 0 0 1-.3-.077.544.544 0 0 1-.23-.22v-.004zm-3.04-5.257a.602.602 0 0 1-.08-.224c0-.08 0-.16.02-.237a.573.573 0 0 1 .11-.21.598.598 0 0 1 .18-.152.596.596 0 0 1 .82.218c.08.14.1.302.06.456a.642.642 0 0 1-.29.364.51.51 0 0 1-.3.085c-.1 0-.21-.027-.3-.08a.664.664 0 0 1-.22-.218v-.004zm-3.04-5.255a.576.576 0 0 1-.07-.224.47.47 0 0 1 .02-.235.55.55 0 0 1 .28-.363.61.61 0 0 1 .83.217c.08.142.1.308.05.465a.596.596 0 0 1-.28.367.616.616 0 0 1-.3.072.594.594 0 0 1-.52-.298l-.01-.005zm-3.03-5.243a.626.626 0 0 1-.06-.464.58.58 0 0 1 .29-.37c.13-.077.3-.1.45-.057.15.04.29.14.37.276.08.14.09.307.05.462a.602.602 0 0 1-.28.37c-.09.05-.2.075-.3.074a.586.586 0 0 1-.52-.286v-.003zm-3.04-5.255a.618.618 0 0 1 .22-.833.61.61 0 0 1 .46-.053.6.6 0 0 1 .37.282c.08.14.1.303.05.456a.59.59 0 0 1-.28.364.5.5 0 0 1-.29.085.623.623 0 0 1-.53-.297v-.004zm-2.5-4.95a.504.504 0 0 1-.24-.048.528.528 0 0 1-.2-.133.515.515 0 0 1-.13-.19.605.605 0 0 1-.05-.23.6.6 0 0 1 .05-.23.52.52 0 0 1 .13-.194c.06-.06.12-.105.2-.133a.592.592 0 0 1 .74.21c.08.117.11.258.1.398a.59.59 0 0 1-.18.37.545.545 0 0 1-.19.137.54.54 0 0 1-.23.046z" opacity=".6" fill="#202124"/><path d="M863.375 148.778h-52.5a.778.778 0 0 1-.778-.778V95.5a.782.782 0 0 1 .48-.718.776.776 0 0 1 .848.168l52.5 52.5a.78.78 0 0 1-.55 1.328zm-51.722-1.556h49.845l-49.845-49.844v49.844zm-.773 54.056a.768.768 0 0 1-.78-.778c0-.206.082-.405.227-.552a.804.804 0 0 1 1.097 0 .804.804 0 0 1 .17.848.793.793 0 0 1-.42.424.787.787 0 0 1-.295.058zm2.208-2.995a.774.774 0 0 1 .552-1.324.78.78 0 0 1 .552.225.786.786 0 0 1 0 1.096.765.765 0 0 1-1.104 0zm2.76-2.76a.774.774 0 0 1 .553-1.325.778.778 0 0 1 .555 1.324.774.774 0 0 1-.552.226.768.768 0 0 1-.55-.226zm2.77-2.762a.782.782 0 0 1 .548-1.33.775.775 0 0 1 .776.78.77.77 0 0 1-.227.55.778.778 0 0 1-1.097 0zm2.76-2.76a.782.782 0 0 1 .55-1.33.775.775 0 0 1 .775.78.786.786 0 0 1-.227.55.78.78 0 0 1-1.097 0zm2.762-2.77a.774.774 0 0 1 .552-1.32c.207 0 .406.08.553.227a.79.79 0 0 1 0 1.096.766.766 0 0 1-.553.226.768.768 0 0 1-.55-.226zm2.76-2.76a.774.774 0 0 1 .554-1.322.785.785 0 0 1 .72.48.775.775 0 0 1-.72 1.07.76.76 0 0 1-.553-.226zm2.77-2.76a.782.782 0 0 1 .55-1.33.774.774 0 0 1 .775.78.783.783 0 0 1-.228.55.78.78 0 0 1-1.097 0zm2.76-2.77a.778.778 0 0 1 .253-1.263.775.775 0 0 1 .845 1.266.762.762 0 0 1-1.097 0zm2.762-2.76a.778.778 0 0 1 0-1.096.788.788 0 0 1 1.105 0 .778.778 0 0 1 0 1.097.783.783 0 0 1-1.105 0zm2.762-2.76a.785.785 0 0 1 0-1.105.797.797 0 0 1 1.104 0 .785.785 0 0 1 0 1.105.792.792 0 0 1-1.104 0zm2.768-2.76a.788.788 0 0 1 0-1.106.778.778 0 0 1 1.097 0 .785.785 0 0 1 0 1.105.784.784 0 0 1-1.1 0zm2.762-2.77a.76.76 0 0 1-.228-.55.774.774 0 0 1 1.073-.715.774.774 0 0 1 .25 1.264.74.74 0 0 1-.546.233.755.755 0 0 1-.552-.233zm2.76-2.762a.774.774 0 0 1 .553-1.324.783.783 0 0 1 .72.48.775.775 0 0 1-.72 1.07.768.768 0 0 1-.552-.226zm2.762-2.76a.783.783 0 0 1 0-1.105.794.794 0 0 1 1.104 0 .78.78 0 0 1 0 1.105.797.797 0 0 1-.552.226.808.808 0 0 1-.552-.225zm2.77-2.762a.783.783 0 0 1 .25-1.273.775.775 0 0 1 1.073.722.777.777 0 0 1-1.326.552zm2.76-2.77a.78.78 0 0 1-.228-.547.775.775 0 1 1 1.324.547.752.752 0 0 1-.544.234.773.773 0 0 1-.552-.234zm2.76-2.76a.778.778 0 0 1 0-1.097.782.782 0 0 1 1.333.547.775.775 0 0 1-.78.774.75.75 0 0 1-.555-.224zm2.77-2.76a.77.77 0 0 1 0-1.106.79.79 0 0 1 1.096 0 .783.783 0 0 1 0 1.104.78.78 0 0 1-1.096 0z" fill="#757A89"/><path d="M863.37 148.778a.778.778 0 0 1-.776-.778.79.79 0 0 1 .233-.552.804.804 0 0 1 1.097 0 .773.773 0 0 1-.25 1.268.79.79 0 0 1-.303.062zm-52.5 0a.778.778 0 0 1-.776-.778.79.79 0 0 1 .233-.552.804.804 0 0 1 1.097 0 .782.782 0 0 1 .225.552.765.765 0 0 1-.48.72.765.765 0 0 1-.3.058zm-.776 47.972a.764.764 0 0 1 .227-.55.765.765 0 0 1 .55-.226.765.765 0 0 1 .724.48.76.76 0 0 1 .057.297.757.757 0 0 1-.227.554.775.775 0 0 1-1.1 0 .778.778 0 0 1-.228-.55zm0-3.748a.764.764 0 0 1 .227-.55.78.78 0 0 1 1.106-.002.787.787 0 0 1 .167.85.765.765 0 0 1-.168.253.765.765 0 0 1-.55.227.776.776 0 0 1-.778-.778zm0-3.748a.764.764 0 0 1 .227-.55.778.778 0 0 1 .55-.228.783.783 0 0 1 .556.226.772.772 0 0 1 .225.552.775.775 0 0 1-.23.548.773.773 0 0 1-.55.222.772.772 0 0 1-.775-.77zm0-3.757a.776.776 0 0 1 .777-.777.757.757 0 0 1 .554.227.78.78 0 0 1 .17.848.775.775 0 0 1-1.27.25.772.772 0 0 1-.228-.548zm0-3.748a.776.776 0 0 1 .777-.78.757.757 0 0 1 .554.226.78.78 0 0 1 .17.85.78.78 0 0 1-.72.478.78.78 0 0 1-.778-.777zm0-3.75a.778.778 0 1 1 .228.55.778.778 0 0 1-.228-.55zm0-3.75a.776.776 0 0 1 .777-.778.757.757 0 0 1 .554.227.78.78 0 0 1 .17.85.775.775 0 0 1-1.27.25.776.776 0 0 1-.228-.55zm0-3.75a.764.764 0 0 1 .227-.55.765.765 0 0 1 .55-.227.765.765 0 0 1 .724.48.76.76 0 0 1 .057.297.757.757 0 0 1-.227.55.775.775 0 0 1-1.1 0 .776.776 0 0 1-.228-.55zm0-3.748a.766.766 0 0 1 .227-.55.78.78 0 0 1 1.106-.003.787.787 0 0 1 .167.85.765.765 0 0 1-.168.253.765.765 0 0 1-.55.227.78.78 0 0 1-.778-.777v.002zm0-3.756a.767.767 0 0 1 .48-.713.754.754 0 0 1 .297-.057.76.76 0 0 1 .72.473c.04.094.06.195.06.297a.76.76 0 0 1-.224.552.787.787 0 0 1-.85.166.787.787 0 0 1-.48-.72zm0-3.75a.778.778 0 1 1 .058.297.76.76 0 0 1-.058-.298v.002zm0-3.748a.78.78 0 0 1 1.328-.55.775.775 0 0 1 .17.847.772.772 0 0 1-.72.48.778.778 0 0 1-.777-.78v.003zm0-3.75a.78.78 0 0 1 1.328-.55.775.775 0 0 1 .17.85.77.77 0 0 1-.422.42.78.78 0 0 1-1.076-.72zm.786 49.528a.768.768 0 0 1-.78-.778c0-.206.082-.405.227-.552a.804.804 0 0 1 1.097 0 .804.804 0 0 1 .17.848.793.793 0 0 1-.42.424.787.787 0 0 1-.295.058z" fill="#757A89"/><path d="M810.875 148.778h-26.25a.78.78 0 0 1-.718-.48.776.776 0 0 1 .168-.848l26.25-26.25a.79.79 0 0 1 .553-.237.776.776 0 0 1 .727.483.778.778 0 0 1-.18.854l-24.922 24.922h24.372a.776.776 0 0 1 .55 1.328.776.776 0 0 1-.55.228z" fill="#757A89"/><path d="M180.61 54.25a.507.507 0 0 1-.36-.15.546.546 0 0 1-.14-.35.402.402 0 0 1 .04-.19.44.44 0 0 1 .27-.27.496.496 0 0 1 .54.11c.048.045.085.1.11.16.03.06.042.124.04.19a.65.65 0 0 1-.04.19.44.44 0 0 1-.11.16.352.352 0 0 1-.16.11.434.434 0 0 1-.19.04zm-2.06 3.06a.503.503 0 0 1 .124-.918.503.503 0 0 1 .376.047.506.506 0 0 1 .006.87.5.5 0 0 1-.256.07.6.6 0 0 1-.25-.07zM177 60.5a.408.408 0 0 1-.19-.04.356.356 0 0 1-.16-.11.35.35 0 0 1-.11-.16.444.444 0 0 1-.04-.19.415.415 0 0 1 .04-.19.535.535 0 0 1 .27-.27.49.49 0 0 1 .54.11c.05.042.09.098.11.16a.46.46 0 0 1 0 .38.54.54 0 0 1-.27.27.433.433 0 0 1-.19.04zm-2.24-3.37a.516.516 0 0 1 .19-.69.507.507 0 0 1 .68.18.494.494 0 0 1 .054.383.51.51 0 0 1-.234.307.597.597 0 0 1-.26.07.492.492 0 0 1-.43-.25zm-1.37-2.88a.44.44 0 0 1-.19-.04.355.355 0 0 1-.16-.11.51.51 0 0 1-.15-.35.415.415 0 0 1 .04-.19.456.456 0 0 1 .11-.16.515.515 0 0 1 .71 0c.045.045.08.1.1.16a.497.497 0 0 1-.1.54.458.458 0 0 1-.17.11.405.405 0 0 1-.19.04zm6.72 5.75a.487.487 0 0 1 .145-.355.5.5 0 1 1-.108.547.487.487 0 0 1-.037-.192zm4.11.5a.413.413 0 0 1-.19-.04.39.39 0 0 1-.17-.11.426.426 0 0 1-.1-.16.445.445 0 0 1-.04-.19.415.415 0 0 1 .04-.19.44.44 0 0 1 .1-.16.51.51 0 0 1 .55-.11c.06.023.116.06.16.11.048.045.085.1.11.16a.56.56 0 0 1 .04.19.62.62 0 0 1-.04.19.44.44 0 0 1-.11.16.42.42 0 0 1-.16.11.435.435 0 0 1-.19.04zm-14.44 0a.475.475 0 0 1-.35-.15.454.454 0 0 1-.11-.16.65.65 0 0 1-.04-.19.59.59 0 0 1 .04-.19.47.47 0 0 1 .11-.16.494.494 0 0 1 .54-.11.38.38 0 0 1 .17.11.626.626 0 0 1 .11.16c.04.124.04.256 0 .38a.62.62 0 0 1-.11.16.375.375 0 0 1-.17.11.408.408 0 0 1-.19.04zm3.11-.5a.498.498 0 0 1 .5-.5.493.493 0 0 1 .5.5.487.487 0 0 1-.145.355.49.49 0 0 1-.355.145.503.503 0 0 1-.5-.5zm2.06 3.56a.516.516 0 0 1-.19-.69.516.516 0 0 1 .69-.18.513.513 0 0 1 .18.69.49.49 0 0 1-.68.18zm-1.56 3.19a.47.47 0 0 1-.35-.15.352.352 0 0 1-.11-.16.413.413 0 0 1-.04-.19c0-.065.013-.13.04-.19a.37.37 0 0 1 .11-.16.515.515 0 0 1 .71 0c.045.046.08.1.1.16a.497.497 0 0 1-.46.69zm4.98-3.37a.51.51 0 0 1 .033-.56.506.506 0 0 1 .147-.13.516.516 0 0 1 .69.18.512.512 0 0 1-.18.69.502.502 0 0 1-.69-.18zm2.24 3.37a.503.503 0 0 1-.465-.31.473.473 0 0 1-.035-.19.46.46 0 0 1 .04-.19.456.456 0 0 1 .1-.16.51.51 0 0 1 .55-.11.35.35 0 0 1 .16.11c.05.042.09.098.11.16a.43.43 0 0 1 .04.19.4.4 0 0 1-.04.19.352.352 0 0 1-.11.16.428.428 0 0 1-.16.11.402.402 0 0 1-.19.04zM368.78 80.5a.492.492 0 0 1-.35-.15.503.503 0 0 1-.058-.63.498.498 0 0 1 .768-.07.507.507 0 0 1 0 .7.392.392 0 0 1-.17.11.4.4 0 0 1-.19.04zm4.38 8.08a.5.5 0 0 1-.052-.378.498.498 0 0 1 .232-.303.507.507 0 0 1 .69.18.516.516 0 0 1-.19.69.512.512 0 0 1-.68-.19zm-2.4-4.16a.505.505 0 0 1 .18-.69.506.506 0 0 1 .733.568.496.496 0 0 1-.233.302.492.492 0 0 1-.68-.18zM376 93a.472.472 0 0 1-.35-.15.352.352 0 0 1-.11-.16.477.477 0 0 1 0-.38.362.362 0 0 1 .11-.16.504.504 0 0 1 .7 0c.05.042.09.098.11.16a.46.46 0 0 1 0 .38.352.352 0 0 1-.11.16.456.456 0 0 1-.35.15zm0-25a.402.402 0 0 1-.19-.04.367.367 0 0 1-.16-.11.48.48 0 0 1 0-.7.504.504 0 0 1 .81.16.48.48 0 0 1-.11.54.354.354 0 0 1-.16.11.4.4 0 0 1-.19.04zm4.38 8.08a.5.5 0 0 1-.052-.378.48.48 0 0 1 .232-.303.497.497 0 0 1 .378-.056.49.49 0 0 1 .302.234.5.5 0 0 1-.18.69.543.543 0 0 1-.25.06.492.492 0 0 1-.43-.25zm-2.41-4.16a.51.51 0 0 1 .19-.69.51.51 0 0 1 .68.19.488.488 0 0 1 .047.38.48.48 0 0 1-.237.3.42.42 0 0 1-.24.07.512.512 0 0 1-.44-.25zm5.25 8.58a.405.405 0 0 1-.19-.04.46.46 0 0 1-.17-.11.507.507 0 0 1 0-.7.51.51 0 0 1 .55-.11.41.41 0 0 1 .16.11.512.512 0 0 1 .15.35.416.416 0 0 1-.04.19.44.44 0 0 1-.11.16.456.456 0 0 1-.35.15zm-5.06 8.27a.516.516 0 0 1-.19-.69.508.508 0 0 1 .837-.052.498.498 0 0 1-.397.803.516.516 0 0 1-.25-.06zm2.4-4.17a.492.492 0 0 1-.243-.496.507.507 0 0 1 .743-.374.508.508 0 0 1 0 .873.496.496 0 0 1-.25.067.59.59 0 0 1-.25-.07zm-9.62-8.33a.505.505 0 0 1 .316-.935.49.49 0 0 1 .184.065.494.494 0 0 1 .18.68.496.496 0 0 1-.43.25.54.54 0 0 1-.25-.06zm2.4-4.17a.504.504 0 0 1-.18-.68.504.504 0 0 1 .68-.19.516.516 0 0 1 .19.69.5.5 0 0 1-.44.24.576.576 0 0 1-.25-.06z" opacity=".6" fill="#202124"/><defs><clipPath id="a"><path fill="#fff" d="M1069.9 222.272h36.3v36.24h-36.3z"/></clipPath></defs></svg>