<svg width="943" height="905" viewBox="0 0 943 905" fill="none" xmlns="http://www.w3.org/2000/svg">
<g clip-path="url(#clip0)">
<path d="M845.581 9.69982C913.461 45.6998 907.871 190.14 910.661 316.7C913.451 443.26 924.661 551.89 893.071 663.62C861.481 775.35 787.201 890.11 693.631 903.52C599.781 917.21 486.381 829.78 358.171 783.14C229.961 736.5 87.0012 730.62 30.2512 661.07C-26.4988 591.52 3.4412 458.29 63.2112 367C123.261 275.66 213.211 226.5 290.301 192.15C367.111 157.79 431.351 138.24 533.861 92.1498C636.651 46.2898 777.711 -26.3302 845.581 9.69982Z" fill="#F0F0F0"/>
<path d="M95.5004 532.46C88.5004 530.46 67.5004 517.46 63.5004 512.46C59.5004 507.46 50.0004 519.59 67.2504 536" fill="white"/>
<path d="M87.5004 524.46C80.5004 522.46 59.5004 509.46 55.5004 504.46C51.5004 499.46 42.0004 511.59 59.2504 528" stroke="#1B3C87" stroke-width="4.78" stroke-linecap="round" stroke-linejoin="round"/>
<path d="M175.503 563.46C170.503 557.46 153.503 532.46 150.503 524.46C147.503 516.46 127.073 508.46 140.283 563.46" fill="white"/>
<path d="M165.503 553.46C160.503 547.46 143.503 522.46 140.503 514.46C137.913 507.57 122.403 500.68 126.593 534.06" stroke="#1B3C87" stroke-width="4.78" stroke-linecap="round" stroke-linejoin="round"/>
<path d="M286.879 654.22C280.499 667.46 252.499 719.46 252.499 719.46C252.499 719.46 188.499 582.46 181.499 579.46C174.499 576.46 67.4993 539.46 47.4993 528.46C39.4993 524.46 15.4993 531.46 59.4993 560.46C103.499 589.46 146.499 613.46 151.499 623.46C156.499 633.46 192.499 788.46 192.499 788.46H326.619C335.499 788.46 365.499 690.46 365.499 690.46C365.499 690.46 294.269 646 286.879 654.22Z" fill="white"/>
<path d="M172.893 737.54C178.453 761.06 182.503 778.46 182.503 778.46H316.623C325.503 778.46 355.503 680.46 355.503 680.46C355.503 680.46 284.273 636 276.883 644.22C270.503 657.46 242.503 709.46 242.503 709.46C242.503 709.46 178.503 572.46 171.503 569.46C169.343 568.54 157.703 564.39 142.043 558.77" stroke="#1B3C87" stroke-width="4.78" stroke-linecap="round" stroke-linejoin="round"/>
<path d="M76.3828 567.76C109.683 588.76 137.533 605.53 141.503 613.46C144.133 618.73 155.393 664.32 165.443 706.24" stroke="#1B3C87" stroke-width="4.78" stroke-linecap="round" stroke-linejoin="round"/>
<path d="M115.792 549.3C83.8921 537.71 48.2121 524.35 37.5021 518.46C30.2121 514.82 9.66212 520.3 39.2721 543.21" stroke="#1B3C87" stroke-width="4.78" stroke-linecap="round" stroke-linejoin="round"/>
<path d="M468.062 490.46C528.002 521.58 460.912 676.46 424.062 715.66C393.892 722.2 287.462 671.08 274.312 637.14C285.373 603.69 382.643 446.1 468.062 490.46Z" fill="#46DBC9"/>
<path d="M880.73 217.46L940.59 354.75L696.5 396.31L880.73 217.46Z" stroke="#B6C6FC" stroke-width="4.78" stroke-linecap="round" stroke-linejoin="round"/>
<path d="M198.546 213.451L80.8477 353.371L203.947 456.92L321.645 317L198.546 213.451Z" stroke="#B6C6FC" stroke-width="4.78" stroke-linecap="round" stroke-linejoin="round"/>
<path d="M346.883 511.32C380.683 480.48 420.513 460.96 458.062 480.46C518.002 511.58 450.912 666.46 414.062 705.66C383.892 712.2 277.462 661.08 264.312 627.14C267.763 616.69 279.632 594.14 296.932 569.36" stroke="#1B3C87" stroke-width="4.78" stroke-linecap="round" stroke-linejoin="round"/>
<path d="M454.301 454.13C478.461 437.94 506.641 428.46 539.501 428.46C663.501 428.46 715.501 592.46 718.501 779.46" stroke="#1B3C87" stroke-width="4.78" stroke-linecap="round" stroke-linejoin="round"/>
<path d="M347.859 623.4C363.859 571.65 386.589 521.88 418.759 485.59" stroke="#1B3C87" stroke-width="4.78" stroke-linecap="round" stroke-linejoin="round"/>
<path d="M316.609 778.62C319.189 756.15 322.799 731.02 327.819 704.81" stroke="#1B3C87" stroke-width="4.78" stroke-linecap="round" stroke-linejoin="round"/>
<path d="M728.26 778.46C723.42 596.08 671.06 438.46 549.5 438.46C395.29 438.46 344.17 647.3 327.82 778.46H728.26Z" fill="#46DBC9"/>
<path d="M797.543 706.23L768.543 638.46L657.543 706.46C660.943 718.7 672.663 755.9 679.813 778.46" stroke="#1B3C87" stroke-width="4.78" stroke-linecap="round" stroke-linejoin="round"/>
<path d="M797 779V691.63L778.5 648.46L667.5 716.46C670.5 727.1 679.7 756.61 686.76 778.96L797 779Z" fill="white"/>
<path d="M648.503 479.46C709.503 450.46 792.503 597.46 801.503 650.46C788.503 678.46 683.503 732.46 648.503 722.46C628.503 693.46 561.573 520.79 648.503 479.46Z" fill="#46DBC9"/>
<path d="M699.201 485.59C744.141 523.15 785.311 604.02 791.501 640.46C778.501 668.46 673.501 722.46 638.501 712.46C636.076 708.782 633.885 704.954 631.941 701" stroke="#1B3C87" stroke-width="4.78" stroke-linecap="round" stroke-linejoin="round"/>
<path d="M602.123 615C590.243 561.45 589.623 501.45 629.263 474.74" stroke="#1B3C87" stroke-width="4.78" stroke-linecap="round" stroke-linejoin="round"/>
<path d="M762.88 156.46H797.5V778.46H175.5V748.57" stroke="#1B3C87" stroke-width="4.78" stroke-linecap="round" stroke-linejoin="round"/>
<path d="M175.5 204.63V156.46H629.26" stroke="#1B3C87" stroke-width="4.78" stroke-linecap="round" stroke-linejoin="round"/>
<path d="M175.5 574.6V356.76" stroke="#1B3C87" stroke-width="4.78" stroke-linecap="round" stroke-linejoin="round"/>
<path d="M596 344C591 364 582 407 585 465C568 480 511 483 485 463C490 432 490 402 489 382C488 362 596 344 596 344Z" fill="white"/>
<path d="M477 455C482 424 482 394 481 374C480 354 588 336 588 336C583 356 574 399 577 457C566.93 465.88 542.86 470.55 519.49 468.74" stroke="#1B3C87" stroke-width="4.78" stroke-linecap="round" stroke-linejoin="round"/>
<path d="M517 406.46C574.161 406.46 620.5 347.362 620.5 274.46C620.5 201.558 574.161 142.46 517 142.46C459.839 142.46 413.5 201.558 413.5 274.46C413.5 347.362 459.839 406.46 517 406.46Z" fill="white"/>
<path d="M555.211 382.6C541.459 391.563 525.416 396.375 509.001 396.46C477.261 396.46 448.861 378.24 429.871 349.55" stroke="#1B3C87" stroke-width="4.78" stroke-linecap="round" stroke-linejoin="round"/>
<path d="M410.87 306.55C407.281 292.809 405.476 278.662 405.5 264.46C405.5 191.56 451.83 132.46 509 132.46C566.17 132.46 612.5 191.56 612.5 264.46C612.546 281.699 609.867 298.838 604.56 315.24" stroke="#1B3C87" stroke-width="4.78" stroke-linecap="round" stroke-linejoin="round"/>
<path d="M466.5 252.46C465.5 262.46 452.5 290.46 442.5 300.46" stroke="#1B3C87" stroke-width="4.78" stroke-linecap="round" stroke-linejoin="round"/>
<path d="M473.5 340.46C478.5 340.46 488.5 338.46 496.5 326.46" stroke="#1B3C87" stroke-width="4.78" stroke-linecap="round" stroke-linejoin="round"/>
<path d="M441.957 261.012C442.894 255.429 441.556 250.552 438.969 250.117C436.382 249.683 433.525 253.857 432.588 259.439C431.65 265.022 432.988 269.9 435.575 270.334C438.162 270.769 441.019 266.595 441.957 261.012Z" fill="#1B3C87"/>
<path d="M640.5 220.46C640.5 167.46 582.5 131.46 543.5 119.46C511.97 109.76 462.5 94.46 436.5 94.46C404.5 94.46 379.5 127.46 379.5 160.46C379.5 196.46 398.5 223.46 421.5 229.46C425.5 217.46 427.5 212.46 427.5 212.46C431.5 217.46 538.5 230.46 574.5 229.46C571.5 242.46 569.5 288.46 589.5 289.46C600.5 290.46 640.5 302.46 640.5 220.46Z" fill="#FB5D64"/>
<path d="M568.002 124.46C557.053 118.263 545.483 113.235 533.482 109.46C501.952 99.76 452.482 84.46 426.482 84.46C401.612 84.46 380.972 104.38 373.012 128.75" stroke="#1B3C87" stroke-width="4.78" stroke-linecap="round" stroke-linejoin="round"/>
<path d="M564.502 219.46C561.502 232.46 559.502 278.46 579.502 279.46C590.502 280.46 630.502 292.46 630.502 210.46C630.502 186.72 618.862 166.4 602.502 150.11" stroke="#1B3C87" stroke-width="4.78" stroke-linecap="round" stroke-linejoin="round"/>
<path d="M372 172.56C377.92 197.22 393.46 214.76 411.46 219.46C415.46 207.46 417.46 202.46 417.46 202.46C420.32 206.04 476.03 213.73 520.64 217.46" stroke="#1B3C87" stroke-width="4.78" stroke-linecap="round" stroke-linejoin="round"/>
<path d="M596.5 319.46C611.412 319.46 623.5 307.372 623.5 292.46C623.5 277.548 611.412 265.46 596.5 265.46C581.588 265.46 569.5 277.548 569.5 292.46C569.5 307.372 581.588 319.46 596.5 319.46Z" fill="white"/>
<path d="M561.5 284.46C561.497 278.717 563.325 273.124 566.719 268.491C570.112 263.859 574.894 260.429 580.37 258.7" stroke="#1B3C87" stroke-width="4.78" stroke-linecap="round" stroke-linejoin="round"/>
<path d="M580.371 258.7C584.082 257.535 588.001 257.185 591.86 257.675C595.719 258.165 599.427 259.483 602.729 261.539C606.031 263.595 608.85 266.34 610.993 269.586C613.136 272.832 614.552 276.503 615.144 280.348C615.737 284.192 615.492 288.12 614.425 291.86C613.359 295.601 611.497 299.068 608.967 302.022C606.437 304.977 603.298 307.35 599.766 308.979C596.234 310.607 592.391 311.454 588.501 311.46C586.221 311.46 583.95 311.174 581.741 310.61" stroke="#1B3C87" stroke-width="4.78" stroke-linecap="round" stroke-linejoin="round"/>
</g>
<defs>
<clipPath id="clip0">
<rect width="942.98" height="904.96" fill="white"/>
</clipPath>
</defs>
</svg>
