<svg width="765" height="995" viewBox="0 0 765 995" fill="none" xmlns="http://www.w3.org/2000/svg">
<g clip-path="url(#clip0)">
<path d="M113.521 648.59C112.671 656.88 96.5806 776.47 93.2506 805.45C89.9206 834.43 68.3106 910 62.1406 920.48C68.5906 924.48 87.7106 935.16 87.7106 935.16C87.7106 935.16 145.991 845.36 148.371 836.81C150.751 828.26 160.881 786.92 160.881 786.92L146.941 640.59L113.521 648.59Z" fill="#3B3744"/>
<path d="M510.683 180.67C569.743 231.11 615.293 296.67 613.283 359.42C611.273 422.17 561.843 482.56 519.163 537.59C476.483 592.62 440.423 642.05 386.833 675.53C333.243 709.01 262.253 726 204.353 705.41C146.453 684.82 101.613 626.82 73.163 565.32C44.713 503.82 32.213 438.73 54.633 391.75C77.053 344.77 134.373 315.75 182.223 263.44C230.073 211.13 268.573 135.13 324.003 115C379.433 94.8696 451.773 130.24 510.683 180.67Z" fill="#F0F0F0"/>
<path d="M106.181 497C102.261 491.48 93.3711 467.7 93.3711 463C93.3711 458.3 120.371 364.2 122.071 356.2C123.771 348.2 123.721 325.57 122.071 318.12C122.791 315.34 124.701 314.44 125.201 316.12C126.511 317.18 133.961 321.65 133.961 321.65C133.961 321.65 151.381 345.65 147.491 351.07C144.305 355.367 141.517 359.946 139.161 364.75C138.221 370.8 124.471 448.75 125.161 453.75C125.851 458.75 139.701 483.96 140.061 485.75C137.071 487.34 107.941 498.85 106.181 497Z" fill="white"/>
<path d="M104.75 400.9C111.16 377.83 117.31 355.9 118.07 352.2C119.72 344.2 119.72 321.57 118.07 314.12C118.79 311.34 120.7 310.44 121.2 312.12" stroke="#1B3C87" stroke-width="2" stroke-linecap="round" stroke-linejoin="round"/>
<path d="M102.181 493C98.2611 487.48 89.3711 463.7 89.3711 459C89.3711 457.23 93.2511 442.62 98.1611 424.72" stroke="#1B3C87" stroke-width="2" stroke-linecap="round" stroke-linejoin="round"/>
<path d="M548.993 -0.0182777L74.6328 121.953L183.461 545.196L657.82 423.224L548.993 -0.0182777Z" fill="#EAF0FF"/>
<path d="M198.407 90.1186L74.6328 121.944L183.461 545.187L307.234 513.361L198.407 90.1186Z" fill="#D8DFFF"/>
<path d="M152.281 206.96C174.146 206.96 191.871 189.235 191.871 167.37C191.871 145.505 174.146 127.78 152.281 127.78C130.416 127.78 112.691 145.505 112.691 167.37C112.691 189.235 130.416 206.96 152.281 206.96Z" fill="#EAF0FF"/>
<path d="M214.637 215.061L121.613 238.98L123.912 247.919L216.936 224L214.637 215.061Z" fill="#EAF0FF"/>
<path d="M220.173 236.583L127.148 260.502L129.447 269.441L222.471 245.522L220.173 236.583Z" fill="#EAF0FF"/>
<path d="M328.211 275.86C334.286 275.86 339.211 270.935 339.211 264.86C339.211 258.785 334.286 253.86 328.211 253.86C322.136 253.86 317.211 258.785 317.211 264.86C317.211 270.935 322.136 275.86 328.211 275.86Z" fill="#B2C3FB"/>
<path d="M529.176 208.405L352.852 253.743L355.15 262.682L531.475 217.344L529.176 208.405Z" fill="#D8DFFF"/>
<path d="M489.18 52.8065L276.285 107.548L312.252 247.428L525.147 192.686L489.18 52.8065Z" fill="white"/>
<path d="M379.082 473.73C385.157 473.73 390.082 468.805 390.082 462.73C390.082 456.655 385.157 451.73 379.082 451.73C373.007 451.73 368.082 456.655 368.082 462.73C368.082 468.805 373.007 473.73 379.082 473.73Z" fill="#B2C3FB"/>
<path d="M580.059 406.273L403.734 451.611L406.033 460.551L582.357 415.212L580.059 406.273Z" fill="#D8DFFF"/>
<path d="M540.051 250.675L327.156 305.416L363.123 445.296L576.018 390.555L540.051 250.675Z" fill="white"/>
<path d="M57.2503 928.22L47.4003 945.57L35.0703 955.07L68.7703 994.24H96.4203L78.4103 966.44L81.4503 941.99" fill="white"/>
<path d="M183.852 955.86L188.692 973.4L185.282 994.24H259.682L216.002 968.45L217.062 955.86" fill="white"/>
<path d="M92.1706 769C90.4306 782.58 89.0106 793.86 88.2506 800.45C84.9306 829.45 63.3106 905.03 57.1406 915.45C63.5906 919.45 82.7106 930.13 82.7106 930.13C82.7106 930.13 140.991 840.33 143.371 831.78C145.751 823.23 155.881 781.89 155.881 781.89L141.941 635.59L108.521 643.59C108.101 647.74 103.861 679.71 99.3206 714.26" stroke="#1B3C87" stroke-width="2" stroke-linecap="round" stroke-linejoin="round"/>
<path d="M171.363 943.77H220.673" stroke="#1B3C87" stroke-width="2" stroke-linecap="round" stroke-linejoin="round"/>
<path d="M171.363 951.86H220.673" stroke="#1B3C87" stroke-width="2" stroke-linecap="round" stroke-linejoin="round"/>
<path d="M246.6 990.24H255.68L212 964.45L213.06 951.86" stroke="#1B3C87" stroke-width="2" stroke-linecap="round" stroke-linejoin="round"/>
<path d="M179.852 951.86L184.692 969.4L181.282 990.24H224.912" stroke="#1B3C87" stroke-width="2" stroke-linecap="round" stroke-linejoin="round"/>
<path d="M50.8125 912.12L85.6425 931.93" stroke="#1B3C87" stroke-width="2" stroke-linecap="round" stroke-linejoin="round"/>
<path d="M47.3516 920.86L82.1916 940.68" stroke="#1B3C87" stroke-width="2" stroke-linecap="round" stroke-linejoin="round"/>
<path d="M76.7902 966.12L74.4102 962.44L77.4501 937.99" stroke="#1B3C87" stroke-width="2" stroke-linecap="round" stroke-linejoin="round"/>
<path d="M46.6203 935.89L43.4003 941.57L31.0703 951.07L64.7703 990.24H92.4203L85.2803 979.22" stroke="#1B3C87" stroke-width="2" stroke-linecap="round" stroke-linejoin="round"/>
<path d="M128.262 655.84C128.262 660.84 132.422 720.28 146.662 767.34C156.072 812.28 183.362 948.77 183.362 948.77H218.062L205.572 643.87L128.262 655.84Z" fill="#3B3744"/>
<path d="M160.882 856.69C169.962 901.77 178.362 943.77 178.362 943.77H213.062L200.572 638.87L123.262 650.87C123.262 655.87 127.422 715.31 141.662 762.37C143.802 772.58 146.862 787.51 150.312 804.5" stroke="#1B3C87" stroke-width="2" stroke-linecap="round" stroke-linejoin="round"/>
<path d="M247.092 521.38C255.092 525.62 280.552 537.13 283.622 537.13C286.692 537.13 330.622 522.63 332.942 518.2C335.262 513.77 337.662 501.97 341.682 500.79C345.702 499.61 343.432 509.99 343.432 509.99C345.812 509.21 383.382 499.42 383.212 499.62C384.212 505 363.882 520.25 361.762 520.8C351.312 532.52 286.242 569 283.412 569C280.582 569 236.622 557 233.852 556C234.402 551.91 243.292 524.27 247.092 521.38Z" fill="white"/>
<path d="M138.703 355.79C141.213 352.43 143.993 348.79 143.863 343.6" stroke="#1B3C87" stroke-width="2" stroke-linecap="round" stroke-linejoin="round"/>
<path d="M135.381 480C133.381 473.92 121.511 454.16 121.201 449C120.901 444 132.721 374.12 134.861 363.35" stroke="#1B3C87" stroke-width="2" stroke-linecap="round" stroke-linejoin="round"/>
<path d="M140.762 552.06C126.932 558.06 95.7622 508.34 102.542 500.43C112.022 489.53 138.722 481.14 147.872 484.67C152.492 491 164.282 541.91 140.762 552.06Z" fill="#46DBC9"/>
<path d="M136.762 548.06C122.932 554.06 91.7622 504.34 98.5422 496.43C108.022 485.53 134.722 477.14 143.872 480.67C148.492 487 160.282 537.91 136.762 548.06Z" stroke="#1B3C87" stroke-width="2" stroke-linecap="round" stroke-linejoin="round"/>
<path d="M266.25 562.61C272.32 564.02 277.25 564.99 278.91 564.99C284.1 564.99 344.99 529.83 357.26 517.09C369.07 510.24 376.5 502.59 379.21 496.7" stroke="#1B3C87" stroke-width="2" stroke-linecap="round" stroke-linejoin="round"/>
<path d="M231.371 553.16C233.531 553.98 238.541 555.46 244.561 557.1" stroke="#1B3C87" stroke-width="2" stroke-linecap="round" stroke-linejoin="round"/>
<path d="M306.703 524.55C317.593 520.55 327.843 516.28 328.943 514.2C331.303 509.77 333.663 497.97 337.683 496.79C341.703 495.61 339.433 505.99 339.433 505.99" stroke="#1B3C87" stroke-width="2" stroke-linecap="round" stroke-linejoin="round"/>
<path d="M243.094 517.38C251.094 521.62 276.554 533.13 279.624 533.13C281.491 532.82 283.33 532.362 285.124 531.76" stroke="#1B3C87" stroke-width="2" stroke-linecap="round" stroke-linejoin="round"/>
<path d="M169.003 492.57C215.093 492.57 218.633 584.04 205.873 654.94C193.463 659.94 123.273 662.03 111.573 650.68C107.323 635.09 92.1926 492.58 169.003 492.57Z" fill="#46DBC9"/>
<path d="M107.5 552.07C114.02 518.29 129.93 488.57 165 488.57C196.56 488.57 208.17 531.47 208.26 581.28" stroke="#1B3C87" stroke-width="2" stroke-linecap="round" stroke-linejoin="round"/>
<path d="M110.3 648.59C109.307 648.082 108.388 647.439 107.57 646.68C106.09 641.27 103.31 620.59 103.51 595.88" stroke="#1B3C87" stroke-width="2" stroke-linecap="round" stroke-linejoin="round"/>
<path d="M206.852 613.35C205.762 626.11 204.052 638.82 201.852 650.94C194.852 653.72 169.782 655.61 146.992 654.74" stroke="#1B3C87" stroke-width="2" stroke-linecap="round" stroke-linejoin="round"/>
<path d="M176.743 512.41C181.053 496.83 244.513 503.92 246.643 514.91C249.483 530.15 238.493 558.16 229.273 563.47C220.763 563.12 169.403 538.93 176.743 512.41Z" fill="#46DBC9"/>
<path d="M239.004 506.86C241.094 508.11 242.404 509.48 242.684 510.91C245.524 526.15 234.534 554.16 225.314 559.47C222.594 559.36 205.824 551.92 197.684 547.65" stroke="#1B3C87" stroke-width="2" stroke-linecap="round" stroke-linejoin="round"/>
<path d="M172.072 514.91C171.93 512.721 172.157 510.524 172.742 508.41C175.462 498.59 201.642 497.77 221.182 501.26" stroke="#1B3C87" stroke-width="2" stroke-linecap="round" stroke-linejoin="round"/>
<path d="M172.402 502.9C172.402 506.97 146.602 507.49 146.602 502.9V466.3H172.402V502.9Z" fill="white"/>
<path d="M168.402 487.13V498.9" stroke="#1B3C87" stroke-width="2" stroke-linecap="round" stroke-linejoin="round"/>
<path d="M157.792 502.08C150.682 502.44 142.602 501.47 142.602 498.9V462.3H168.402V478.73" stroke="#1B3C87" stroke-width="2" stroke-linecap="round" stroke-linejoin="round"/>
<path d="M165.482 474.28C180.051 474.28 191.862 458.749 191.862 439.59C191.862 420.431 180.051 404.9 165.482 404.9C150.912 404.9 139.102 420.431 139.102 439.59C139.102 458.749 150.912 474.28 165.482 474.28Z" fill="white"/>
<path d="M179.644 461.94C175.034 467.14 169.034 470.28 162.484 470.28C147.914 470.28 136.094 454.75 136.094 435.59C136.094 416.43 147.914 400.9 162.484 400.9C177.054 400.9 188.864 416.43 188.864 435.59C188.914 441.846 187.597 448.037 185.004 453.73" stroke="#1B3C87" stroke-width="2" stroke-linecap="round" stroke-linejoin="round"/>
<path d="M134.531 443.37C134.531 415.74 143.701 389.29 152.941 389.29C162.181 389.29 157.091 402.4 157.091 402.4C160.931 394.72 172.801 382.85 177.991 382.85C183.181 382.85 184.441 390.85 179.121 399.01C181.433 396.433 184.231 394.339 187.354 392.846C190.477 391.353 193.864 390.491 197.321 390.31C203.321 390.31 204.101 397.43 204.101 404.44C204.101 416.83 178.101 435.85 175.171 439.13C174.941 443.2 171.551 476.31 163.301 476.31C155.051 476.31 134.531 474.28 134.531 443.37Z" fill="#ECC953"/>
<path d="M168.22 462.9C166.46 468.3 164.17 472.31 161.3 472.31C156.66 472.31 148.14 471.67 141.57 465.61" stroke="#1B3C87" stroke-width="2" stroke-linecap="round" stroke-linejoin="round"/>
<path d="M200.001 407.34C195.191 416.34 183.201 426.41 176.891 431.78" stroke="#1B3C87" stroke-width="2" stroke-linecap="round" stroke-linejoin="round"/>
<path d="M188.48 387.58C190.679 386.797 192.988 386.369 195.32 386.31C200.32 386.31 201.69 391.26 202.01 396.96" stroke="#1B3C87" stroke-width="2" stroke-linecap="round" stroke-linejoin="round"/>
<path d="M132.57 436C133.27 409.62 142.08 385.27 150.94 385.27C160.17 385.27 155.09 398.38 155.09 398.38C158.93 390.7 170.8 378.83 175.99 378.83C181.18 378.83 182.44 386.83 177.12 394.99" stroke="#1B3C87" stroke-width="2" stroke-linecap="round" stroke-linejoin="round"/>
<path d="M176.37 451.8C181.004 451.8 184.76 448.043 184.76 443.41C184.76 438.776 181.004 435.02 176.37 435.02C171.737 435.02 167.98 438.776 167.98 443.41C167.98 448.043 171.737 451.8 176.37 451.8Z" fill="white"/>
<path d="M166.004 442.3C165.988 442.003 165.988 441.706 166.004 441.41C165.996 439.955 166.368 438.523 167.083 437.255C167.797 435.988 168.829 434.928 170.077 434.18C171.325 433.432 172.747 433.022 174.201 432.991C175.656 432.959 177.094 433.307 178.374 434" stroke="#1B3C87" stroke-width="2" stroke-linecap="round" stroke-linejoin="round"/>
<path d="M176.752 449.46C175.98 449.693 175.178 449.811 174.372 449.81C172.215 449.813 170.14 448.982 168.582 447.49" stroke="#1B3C87" stroke-width="2" stroke-linecap="round" stroke-linejoin="round"/>
<path d="M658.412 108.74H603.172L630.792 156.57L658.412 108.74Z" stroke="#B6C6FC" stroke-width="2" stroke-linecap="round" stroke-linejoin="round"/>
<path d="M45.8856 180.099L26.1133 167.361L0.995657 206.351L20.768 219.089L45.8856 180.099Z" stroke="#B6C6FC" stroke-width="2" stroke-linecap="round" stroke-linejoin="round"/>
<path d="M512.876 650.53L385.391 604.18L298.314 843.681L425.799 890.032L512.876 650.53Z" fill="#EAF0FF"/>
<path d="M379.082 632.06C391.873 632.06 402.242 621.691 402.242 608.9C402.242 596.109 391.873 585.74 379.082 585.74C366.291 585.74 355.922 596.109 355.922 608.9C355.922 621.691 366.291 632.06 379.082 632.06Z" stroke="#B6C6FC" stroke-width="2" stroke-linecap="round" stroke-linejoin="round"/>
<path d="M691.831 491.06L687.621 577.56L764.641 537.95L691.831 491.06Z" fill="#EAF0FF"/>
</g>
<defs>
<clipPath id="clip0">
<rect width="764.64" height="994.24" fill="white"/>
</clipPath>
</defs>
</svg>
