<svg width="1002" height="1004" viewBox="0 0 1002 1004" fill="none" xmlns="http://www.w3.org/2000/svg">
<g clip-path="url(#clip0)">
<path d="M804.851 117.73C898.611 192.73 963.781 305.48 957.381 410.21C950.981 514.72 872.771 611.21 813.541 722.59C754.311 833.97 713.611 960.65 635.621 993.12C557.421 1025.6 441.701 963.85 330.561 913.31C219.421 862.55 112.861 822.76 54.0909 744.09C-4.68906 665.65 -16.1191 548.09 22.5309 458.69C61.1809 369.29 149.681 307.76 231.771 230.69C314.101 153.63 390.001 61.2401 489.271 33.5701C588.541 5.9001 710.861 42.7201 804.851 117.73Z" fill="#F0F0F0"/>
<path d="M143.471 3C49.8607 76.26 84.7007 372.94 276.631 410.37C501.401 454.2 516.591 224.72 687.001 245.3C835.191 263.21 879.671 423.45 787.911 523.93" stroke="white" stroke-width="6" stroke-linecap="round" stroke-linejoin="round" stroke-dasharray="36 36"/>
<path d="M348.291 510.08C337.291 505.87 282.371 461.56 278.091 454.57C273.811 447.58 245.391 403.15 245.391 403.15L293.231 366.67C293.231 366.67 336.331 405.41 344.721 413.21C353.111 421.01 385.531 433.46 389.051 433.45C392.571 433.44 348.291 510.08 348.291 510.08Z" fill="white"/>
<path d="M335.68 497.47C329.12 493.69 276.3 449.77 271.09 444.57C265.88 439.37 245.09 406.27 241.75 398.36" stroke="#1B3C87" stroke-width="5.43" stroke-linecap="round" stroke-linejoin="round"/>
<path d="M697.001 805.31C685.741 810.31 483.831 856.62 448.801 857.04C456.871 902.22 486.851 990.61 488.951 999.58C506.881 995.23 725.271 913.08 733.361 907.69C726.651 894.76 700.711 831.59 697.001 805.31Z" fill="#3B3744"/>
<path d="M461.257 97.0213L80.4662 302.914C41.2511 324.118 26.6487 373.095 47.851 412.307C69.0532 451.52 118.031 466.119 157.246 444.916L538.037 239.023C577.252 217.819 591.855 168.842 570.652 129.63C549.45 90.4171 500.472 75.8178 461.257 97.0213Z" fill="#D7E0FF"/>
<path d="M283.293 315L242.223 301.82L255.413 260.74" stroke="white" stroke-width="5.3" stroke-linecap="round" stroke-linejoin="round"/>
<path d="M351.68 211.26L392.75 224.45L379.57 265.52" stroke="white" stroke-width="5.3" stroke-linecap="round" stroke-linejoin="round"/>
<path d="M293.711 207.5L323.251 329.66" stroke="white" stroke-width="5.3" stroke-linecap="round" stroke-linejoin="round"/>
<path d="M257 211.84C249.33 195.15 201.43 212.76 181 229.75C186.68 248.42 192.45 264.85 195.74 268.58C199.77 269 259.52 238.76 257 211.84Z" fill="white"/>
<path d="M474.359 465.46C445.839 442.46 406.549 427.06 395.189 422.37C386.929 425.94 376.309 444.8 366.949 466.2C350.209 497.63 344.949 535.83 344.949 535.83C370.869 551.94 424.639 562.23 434.119 562.23C443.599 562.23 474.359 465.46 474.359 465.46Z" fill="#46DBC9"/>
<path d="M527.072 441.32C627.352 417.27 673.182 704.49 694.962 804.32C673.632 820.2 484.422 867.84 446.762 856C377.342 673.18 353.252 483 527.072 441.32Z" fill="#46DBC9"/>
<path d="M519.072 431.32C619.352 407.27 665.182 694.49 686.962 794.32C665.632 810.2 476.422 857.84 438.762 846C369.342 663.18 345.252 473 519.072 431.32Z" stroke="#1B3C87" stroke-width="5.3" stroke-linecap="round" stroke-linejoin="round"/>
<path d="M581.06 620.66C575.8 628.27 527.79 682.42 520.18 686.22C512.57 690.02 482.38 689.53 476.57 686.22C442.62 666.9 333.15 496.84 325.24 480.74C317.33 464.64 305.93 441.82 295.68 433.33C294.03 420.84 302.98 404.49 287.09 384.71C290.01 370.77 281.9 309.17 328.09 333.97C340.25 340.62 356.97 366.69 354.66 388.16C352.35 409.63 349.56 434.02 354.18 444.04C358.8 454.06 484.28 587.63 487.52 589.25C491.52 584.02 507.45 563.13 507.45 563.13L581.06 620.66Z" fill="white"/>
<path d="M628.13 477.68C676.65 516.14 617.64 605.3 595.79 629.77C585.79 630.21 498.93 579.07 494.48 558.09C507.07 539.3 574.06 434.81 628.13 477.68Z" fill="#46DBC9"/>
<path d="M360.002 534.7C352.386 531.68 345.029 528.044 338.002 523.83C337.412 521.44 338.322 516.09 341.252 506.03" stroke="#1B3C87" stroke-width="5.43" stroke-linecap="round" stroke-linejoin="round"/>
<path d="M360.859 452.13C370.219 430.73 379.929 413.94 388.189 410.37C399.549 415.06 437.029 429.06 465.549 452.02" stroke="#1B3C87" stroke-width="5.3" stroke-linecap="round" stroke-linejoin="round"/>
<path d="M426.421 523.12C392.331 488.48 353.621 447.35 347.191 432.04C342.901 423.04 345.931 363.94 354.071 351.27" stroke="#1B3C87" stroke-width="5.43" stroke-linecap="round" stroke-linejoin="round"/>
<path d="M494.563 559.36C489.323 564.88 484.673 572 480.563 577.25C479.383 575.89 472.633 569.25 462.723 559.43" stroke="#1B3C87" stroke-width="5.43" stroke-linecap="round" stroke-linejoin="round"/>
<path d="M522.36 666.35C518.11 670.5 514.8 673.41 513.18 674.22C505.57 678.03 475.38 677.53 469.57 674.22C435.62 654.9 326.15 484.84 318.24 468.74C310.33 452.64 298.93 429.82 288.68 421.33" stroke="#1B3C87" stroke-width="5.43" stroke-linecap="round" stroke-linejoin="round"/>
<path d="M571 612.57C569.33 614.98 563.69 621.65 556.52 629.77" stroke="#1B3C87" stroke-width="5.43" stroke-linecap="round" stroke-linejoin="round"/>
<path d="M334.722 379.09C333.722 362.09 323.642 325.92 316.012 318.09" stroke="#1B3C87" stroke-width="5.43" stroke-linecap="round" stroke-linejoin="round"/>
<path d="M317.491 379.09C314.781 368.02 303.951 333.31 292.871 316.09" stroke="#1B3C87" stroke-width="5.43" stroke-linecap="round" stroke-linejoin="round"/>
<path d="M302.72 387.46C302.23 381.56 292.87 356.69 286.23 349.8" stroke="#1B3C87" stroke-width="5.43" stroke-linecap="round" stroke-linejoin="round"/>
<path d="M291.393 399.52C290.163 393.37 282.533 376.88 276.633 371.22" stroke="#1B3C87" stroke-width="5.43" stroke-linecap="round" stroke-linejoin="round"/>
<path d="M723.321 896.69C718.321 885.86 691.731 817.05 686.961 794.31" stroke="#1B3C87" stroke-width="5.3" stroke-linecap="round" stroke-linejoin="round"/>
<path d="M586.262 945.27C578.262 938.77 546.972 898.27 533.672 879.99" stroke="#1B3C87" stroke-width="5.3" stroke-linecap="round" stroke-linejoin="round"/>
<path d="M478.912 988.58C474.272 978.37 442.862 871.19 438.762 846.04" stroke="#1B3C87" stroke-width="5.3" stroke-linecap="round" stroke-linejoin="round"/>
<path d="M375.852 423.45C367.672 419.83 351.032 411.55 345.242 410.37" stroke="#1B3C87" stroke-width="5.43" stroke-linecap="round" stroke-linejoin="round"/>
<path d="M171.199 437.36L236.029 490.45L227.099 407.13" fill="#D7E0FF"/>
<path d="M244.501 198.1C240.561 193.93 205.711 179.03 232.671 239.1" stroke="#1B3C87" stroke-width="5.43" stroke-linecap="round" stroke-linejoin="round"/>
<path d="M219.401 206.58C215.401 202.41 180.611 187.51 207.561 247.58" stroke="#1B3C87" stroke-width="5.43" stroke-linecap="round" stroke-linejoin="round"/>
<path d="M190.1 220.58C186.28 217.07 156.63 207.58 188.68 262.58" stroke="#1B3C87" stroke-width="5.43" stroke-linecap="round" stroke-linejoin="round"/>
<path d="M916.673 660.88L993.073 629.81L774.473 552.64L846.923 772.84L879.633 697.13" fill="#D7E0FF"/>
<path d="M916.673 660.88L1001.79 747.85L964.753 784.1L879.633 697.13" fill="#D7E0FF"/>
<path d="M530.09 588C508.8 573.6 489.52 557.69 487.48 548.08" stroke="#1B3C87" stroke-width="5.3" stroke-linecap="round" stroke-linejoin="round"/>
<path d="M635.55 536.33C625.73 570.92 601.24 605.83 588.79 619.77C584.72 619.95 568.04 611.65 549.34 600.33" stroke="#1B3C87" stroke-width="5.3" stroke-linecap="round" stroke-linejoin="round"/>
<path d="M513.172 512.48C540.682 478.38 583.962 438.2 621.172 467.68C622.655 468.849 624.071 470.101 625.412 471.43" stroke="#1B3C87" stroke-width="5.3" stroke-linecap="round" stroke-linejoin="round"/>
<path d="M800.931 12.3799L705.141 108.73L934.181 161.73L800.931 12.3799Z" stroke="#B6C6FC" stroke-width="3.95" stroke-linecap="round" stroke-linejoin="round"/>
<path d="M145.614 767.093L130.617 917.347L301.409 934.394L316.406 784.141L145.614 767.093Z" stroke="#B6C6FC" stroke-width="3.95" stroke-linecap="round" stroke-linejoin="round"/>
<path d="M117.48 1001.95C163.32 1001.95 200.48 964.79 200.48 918.95C200.48 873.111 163.32 835.95 117.48 835.95C71.6408 835.95 34.4805 873.111 34.4805 918.95C34.4805 964.79 71.6408 1001.95 117.48 1001.95Z" stroke="#B6C6FC" stroke-width="3.95" stroke-linecap="round" stroke-linejoin="round"/>
<path d="M581.172 175.66C576.852 160.04 558.592 156.72 549.382 189.66C545.382 178.12 537.032 161.72 528.322 161.72C522.882 161.72 515.322 167.34 509.492 177.58" stroke="#1B3C87" stroke-width="5.43" stroke-linecap="round" stroke-linejoin="round"/>
<path d="M575.58 372.07C571.35 386.24 557.4 433.18 556.97 465.74C550.21 469.74 504.74 471.45 492.48 462.36C495.86 447.98 501.57 407.17 500.09 393C506.44 391.74 575.58 372.07 575.58 372.07Z" fill="white"/>
<path d="M493.43 416.91C494.9 404.07 495.78 391.63 495.09 385C501.44 383.74 570.58 364.07 570.58 364.07C566.35 378.24 552.4 425.18 551.97 457.74C547.83 460.2 529.17 461.79 512.51 460.57" stroke="#1B3C87" stroke-width="5.3" stroke-linecap="round" stroke-linejoin="round"/>
<path d="M594.595 335.218C604.17 290.666 583.678 248.477 548.824 240.986C513.97 233.495 477.952 263.538 468.377 308.09C458.801 352.642 479.294 394.831 514.148 402.322C549.002 409.813 585.019 379.769 594.595 335.218Z" fill="white"/>
<path d="M529.001 395.53C522.108 396.889 515.011 396.831 508.141 395.36C490.441 391.56 476.441 378.8 468.211 361.36" stroke="#1B3C87" stroke-width="5.43" stroke-linecap="round" stroke-linejoin="round"/>
<path d="M461.071 337.15C459.37 325.166 459.823 312.974 462.411 301.15C472.001 256.57 508.001 226.53 542.861 234C577.721 241.47 598.201 283.69 588.621 328.24C586.629 337.602 583.344 346.642 578.861 355.1" stroke="#1B3C87" stroke-width="5.43" stroke-linecap="round" stroke-linejoin="round"/>
<path d="M596.181 342C597.461 337.69 610.461 313.12 609.181 274C608.351 248.26 588.011 197.71 588.061 191C588.231 169.69 565.881 160 555.351 197.63C551.351 186.09 543.001 169.69 534.291 169.69C525.581 169.69 511.411 184.07 507.761 208.77C506.551 200.87 499.461 191.77 495.411 191.77C491.361 191.77 481.641 192.38 482.051 225.99C478.811 221.94 471.721 219.51 468.051 219.51C460.531 219.51 449.981 255.62 479.951 278.96C481.631 275.78 486.341 269.06 486.621 269.06C492.131 270.55 545.411 283.84 577.751 288.29C576.941 293.14 565.831 343.88 578.161 359.24C582.194 357.771 585.879 355.48 588.981 352.512C592.083 349.545 594.535 345.965 596.181 342V342Z" fill="#FB5D64"/>
<path d="M501.4 313.42C500.03 318.92 491.7 328.02 487.48 329.66" stroke="#1B3C87" stroke-width="5.43" stroke-linecap="round" stroke-linejoin="round"/>
<path d="M540.564 311.395C541.886 307.803 541.23 304.256 539.1 303.472C536.97 302.688 534.172 304.965 532.85 308.557C531.528 312.149 532.184 315.696 534.314 316.48C536.445 317.264 539.243 314.987 540.564 311.395Z" fill="#1B3C87"/>
<path d="M524.809 355.12C523.199 358.67 513.519 366.89 508.359 367.53" stroke="#1B3C87" stroke-width="5.43" stroke-linecap="round" stroke-linejoin="round"/>
<path d="M571.801 280.32C569.59 291.259 567.968 302.308 566.941 313.42" stroke="#1B3C87" stroke-width="5.43" stroke-linecap="round" stroke-linejoin="round"/>
<path d="M501.792 200.81C500.582 192.91 493.492 183.81 489.442 183.81C485.392 183.81 475.672 184.42 476.082 218.03C472.842 213.98 465.752 211.55 462.082 211.55C454.562 211.55 444.012 247.66 473.982 271C475.662 267.82 480.372 261.1 480.652 261.1C485.182 262.33 522.052 271.54 552.992 277.25" stroke="#1B3C87" stroke-width="5.43" stroke-linecap="round" stroke-linejoin="round"/>
<path d="M594.52 322.78C600.988 304.575 603.937 285.306 603.21 266C602.74 251.62 596.21 229.49 590.5 211.6" stroke="#1B3C87" stroke-width="5.43" stroke-linecap="round" stroke-linejoin="round"/>
<path d="M581.762 367.54C590.874 367.54 598.262 360.153 598.262 351.04C598.262 341.927 590.874 334.54 581.762 334.54C572.649 334.54 565.262 341.927 565.262 351.04C565.262 360.153 572.649 367.54 581.762 367.54Z" fill="white"/>
<path d="M573.86 330.5C576.392 329.658 579.09 329.442 581.723 329.871C584.356 330.3 586.846 331.361 588.979 332.963C591.113 334.566 592.825 336.661 593.971 339.071C595.117 341.48 595.661 344.131 595.558 346.797C595.454 349.463 594.705 352.064 593.376 354.378C592.047 356.691 590.176 358.647 587.925 360.079C585.674 361.511 583.109 362.375 580.45 362.598C577.792 362.822 575.119 362.397 572.66 361.36" stroke="#1B3C87" stroke-width="5.43" stroke-linecap="round" stroke-linejoin="round"/>
</g>
<defs>
<clipPath id="clip0">
<rect width="1001.79" height="1003.94" fill="white"/>
</clipPath>
</defs>
</svg>
